<?xml version="1.0"?>
<svg xmlns="http://www.w3.org/2000/svg" height="512px" viewBox="-2 0 512 512.00052" width="512px" class=""><g><path d="m497.269531 9.421875c-7.042969-6.648437-20.46875-13.222656-44.425781-6.792969l-24.496094 6.574219c-.054687.011719-.109375.027344-.164062.042969l-30.980469 9.070312c-.085937.023438-.171875.050782-.253906.078125-15.300781 5.0625-25.773438 15.117188-28.734375 27.589844-2.238282 9.425781-1.222656 24.34375 16.320312 41.898437l-29.492187 29.535157c-31.699219-25.429688-68.140625-43.246094-105.800781-51.671875-41.75-9.335938-83.503907-7.375-124.089844 5.824218-5.066406 1.636719-8.390625 3.382813-10.820313 4.65625-4.308593 2.261719-5.617187 2.945313-19.785156-1.949218l-20.851563-7.722656 1.273438-11.496094c1.765625-16.058594-3.792969-30.09375-15.253906-38.503906-10.449219-7.667969-24.070313-9.296876-35.550782-4.25-11.941406 5.25-19.75 16.996093-21.425781 32.230468l-2.488281 22.660156c-1.675781 15.027344 5.207031 30.175782 17.972656 39.53125.078125.058594.160156.113282.242188.171876 1.59375 1.074218 3.339844 2.09375 5.253906 3.078124l23.757812 269.421876-8.933593 4.65625c-4.015625 2.089843-7.8125 3.925781-11.484375 5.703124-14.054688 6.796876-23.335938 11.285157-23.324219 20.441407.015625 8.042969 8.082031 12.996093 15.976563 16.785156l44.066406 21.089844 21.105468 44.09375c3.773438 7.894531 8.71875 15.96875 16.753907 15.984375h.027343c9.132813 0 13.617188-9.285156 20.402344-23.328125 1.773438-3.675781 3.609375-7.476563 5.703125-11.5l4.855469-9.324219 266.28125 17.910156c1.789062 4.523438 3.738281 8.335938 5.949219 11.617188.058593.085937.117187.167968.175781.25 8.378906 11.410156 21.480469 18.222656 35.132812 18.222656 1.566407 0 3.015626-.082031 4.367188-.242188l22.660156-2.496093c26.601563-2.929688 36.71875-22.410157 34.863282-39.269531-2-18.195313-18.585938-35.933594-45.390626-32.992188l-11.5 1.273438-7.695312-20.863282c-4.902344-14.226562-4.273438-15.421875-1.949219-19.847656 1.269531-2.417969 3.011719-5.730469 4.652344-10.769531 4.132813-12.699219 7.203125-25.800781 9.128906-38.9375.601563-4.136719-2.257812-7.980469-6.398437-8.589844-4.136719-.601563-7.980469 2.261719-8.585938 6.398437-1.796875 12.289063-4.671875 24.550782-8.542968 36.441407-1.246094 3.820312-2.527344 6.261719-3.660157 8.417969-4.351562 8.285156-5.386719 13.183593 1.066407 31.898437.019531.050781.035156.101563.054687.152344l9.773437 26.496093c1.203126 3.265626 4.480469 5.277344 7.933594 4.90625l17.386719-1.929687c17.988281-1.980469 27.484375 8.773437 28.675781 19.601563 1.015625 9.207031-4 20.640624-21.46875 22.5625l-22.722656 2.503906c-.820312.097656-1.6875.144531-2.730469.144531-8.589843 0-17.292969-4.5625-22.75-11.917969-1.625-2.441406-3.164062-5.527344-4.601562-9.25l-15.855469-39.78125c-8.492188-21.285156-8.492188-21.285156-1.214844-41.464844 12.136719-33.617187 15.734375-72.621093 10.191406-109.980468l27.351563-8.601563c2.15625 12.082031 3.316406 24.265625 3.414063 36.441407.03125 4.160156 3.414062 7.511718 7.570312 7.511718h.058594c4.183594-.035156 7.546875-3.453125 7.511718-7.632812-.230468-28.796875-5.773437-57.382813-16.46875-84.957032-9.730468-25.082031-23.519531-48.789062-41.019531-70.566406l29.988281-30.003906 1.671876 1.597656c.0625.0625.128906.121094.191406.175782 9.125 8.144531 19.351562 12.4375 29.113281 12.4375 3.109375 0 6.167969-.433594 9.128906-1.320313 9.28125-2.769531 21.6875-11.109375 28.117188-35.09375l6.570312-24.511719c.015625-.058594.027344-.113281.042969-.167968l7.644531-31.398438c.023438-.085938.039063-.171875.058594-.257812 3.273437-15.789063-.199219-29.890626-9.527344-38.695313zm-152.984375 118.773437-19.75 19.78125c-23.15625-19.871093-52.5625-33.675781-85.914062-40.34375l1.523437-28.503906c36.675781 7.15625 72.179688 23.679688 104.140625 49.066406zm-328.984375-59.335937 2.488281-22.671875c1.085938-9.851562 5.511719-16.964844 12.46875-20.019531 6.441407-2.835938 14.488282-1.816407 20.496094 2.59375 7.085938 5.199219 10.339844 13.949219 9.164063 24.636719l-1.925781 17.367187c-.382813 3.457031 1.636718 6.726563 4.894531 7.933594l26.480469 9.804687c.050781.019532.101562.039063.15625.054688 18.671874 6.457031 23.5625 5.421875 31.847656 1.070312 2.15625-1.132812 4.605468-2.414062 8.449218-3.660156 31.402344-10.210938 63.65625-13.179688 95.289063-9.242188l-1.519531 28.4375c-35.9375-4.703124-73.414063-.871093-106.101563 10.949219-20.167969 7.28125-20.167969 7.28125-41.433593-1.214843l-39.804688-15.886719c-3.734375-1.464844-6.828125-3.007813-9.195312-4.585938-8.199219-6.074219-12.8125-16.089843-11.753907-25.566406zm24.203125 47.753906 30.9375 12.347657c23.597656 9.425781 27.554688 10.289062 52.195313 1.394531 33.972656-12.285157 70.972656-15.09375 105.417969-9.410157.707031.261719 1.460937.425782 2.25.46875.136718.007813.273437.011719.410156.011719.023437 0 .046875-.003906.070312-.003906 31.339844 5.605469 60.417969 18.285156 83 37.320313l-106.324218 106.488281-92.59375 92.464843c-11.371094-7.9375-19.90625-3.320312-29.570313 1.925782-1.488281.804687-3.089844 1.675781-4.84375 2.585937l-18.441406 9.613281zm-18.9375 293.597657c3.046875-1.96875 8.488282-4.597657 13.085938-6.824219 3.59375-1.738281 7.667968-3.707031 11.886718-5.90625l41.90625-21.84375c1.832032-.949219 3.511719-1.863281 5.074219-2.710938 4.457031-2.417969 7.972657-4.328125 10.089844-4.386719.632813-.015624 2.507813-.066406 7.453125 4.882813l8.8125 8.820313-38.460938 38.507812-12.523437 12.507812-41.636719-19.929687c-2.71875-1.304687-4.511718-2.34375-5.6875-3.117187zm87.867188 68.027343c-2.214844 4.585938-4.835938 10.007813-6.796875 13.058594-.773438-1.171875-1.800781-2.960937-3.09375-5.664063l-19.941407-41.667968 12.519532-12.511719 38.457031-38.503906 8.8125 8.816406c4.953125 4.945313 4.902344 6.839844 4.882813 7.464844-.058594 2.117187-1.96875 5.636719-4.390626 10.09375-.847656 1.5625-1.761718 3.242187-2.710937 5.070312l-21.835937 41.941407c-2.195313 4.222656-4.167969 8.304687-5.902344 11.902343zm321.59375-217.25-26.902344 8.460938c-6.941406-31.976563-20.378906-60.082031-39.371094-82.257813l19.738282-19.746094c22.457031 28.351563 38.289062 60.355469 46.535156 93.542969zm-51.40625-110.089843c-.003906.003906-.007813.007812-.015625.011718l-110.035157 110.105469c-2.957031 2.957031-2.953124 7.75.003907 10.707031 1.476562 1.476563 3.414062 2.214844 5.351562 2.214844s3.878907-.738281 5.355469-2.21875l73.710938-73.757812c39.78125 47.484374 51.859374 126.445312 28.421874 191.34375-8.886718 24.644531-8.023437 28.609374 1.394532 52.210937l9.882812 24.800781-252.433594-16.980468 9.347657-17.953126c.90625-1.746093 1.777343-3.34375 2.582031-4.832031 5.253906-9.671875 9.882812-18.214843 1.933594-29.59375l97.207031-97.242187c2.957031-2.957032 2.953125-7.75-.003906-10.703125-2.957031-2.957031-7.75-2.957031-10.707031 0l-96.765626 96.800781-8.917968-8.925781-8.921875-8.925781 92.15625-92.023438 177.070312-177.34375 7.230469 7.238281c.039062.039063.082031.082031.125.121094l10.710938 10.238281zm113.371094-105.976563-7.59375 31.179687-6.546876 24.429688c-3.601562 13.449219-9.933593 22.152344-17.824218 24.507812-7.09375 2.121094-15.738282-.730468-23.734375-7.824218l-6.792969-6.492188c-.003906-.003906-.007812-.007812-.011719-.011718-.007812-.011719-.019531-.015626-.03125-.027344l-16.339843-15.617188-12.253907-12.261718c-.089843-.097657-.171875-.199219-.265625-.292969-.089844-.089844-.1875-.167969-.277344-.25l-5.070312-5.070313c-9.835938-9.847656-14.207031-19.6875-12.300781-27.707031 1.710937-7.21875 8.5-13.289063 18.636719-16.671875l30.769531-9.007812 24.414062-6.550782c13.425781-3.601562 24.117188-2.46875 30.109375 3.183594 5.394532 5.09375 7.257813 14.011719 5.113282 24.484375zm0 0" data-original="#000000" class="active-path" data-old_color="#000000" fill="#656565"/></g> </svg>
